HIERARCHY
ROOT Hips
{
 OFFSET 0.000000 0.000000 0.000000
 CHANNELS 6 Xposition Yposition Zposition Yrotation Xrotation Zrotation
 JOINT Chest
 {
  OFFSET 0.000000 9.303000 0.001900
  CHANNELS 3 Yrotation Xrotation Zrotation
  JOINT Chest2
  {
   OFFSET 0.000000 9.301100 -0.003900
   CHANNELS 3 Yrotation Xrotation Zrotation
   JOINT Chest3
   {
    OFFSET 0.000000 9.262800 0.000000
    CHANNELS 3 Yrotation Xrotation Zrotation
    JOINT Chest4
    {
     OFFSET 0.000000 9.253300 0.000000
     CHANNELS 3 Yrotation Xrotation Zrotation
     JOINT Neck
     {
      OFFSET 0.000000 14.010300 0.000000
      CHANNELS 3 Yrotation Xrotation Zrotation
      JOINT Head
      {
       OFFSET 0.000000 8.657600 -0.008300
       CHANNELS 3 Yrotation Xrotation Zrotation
       End Site
       {
        OFFSET 0.000000 16.540200 -0.004400
       }
      }
     }
     JOINT RightCollar
     {
      OFFSET -2.834100 9.267700 0.000000
      CHANNELS 3 Yrotation Xrotation Zrotation
      JOINT RightShoulder
      {
       OFFSET -13.135200 0.000000 0.000000
       CHANNELS 3 Yrotation Xrotation Zrotation
       JOINT RightElbow
       {
        OFFSET 0.000000 -28.893500 0.000000
        CHANNELS 3 Yrotation Xrotation Zrotation
        JOINT RightWrist
        {
         OFFSET 0.000000 -23.344000 0.000000
         CHANNELS 3 Yrotation Xrotation Zrotation
         End Site
         {
          OFFSET 0.000000 -17.223000 0.000000
         }
        }
       }
      }
     }
     JOINT LeftCollar
     {
      OFFSET 2.834100 9.267700 0.000000
      CHANNELS 3 Yrotation Xrotation Zrotation
      JOINT LeftShoulder
      {
       OFFSET 13.135200 0.000000 0.000000
       CHANNELS 3 Yrotation Xrotation Zrotation
       JOINT LeftElbow
       {
        OFFSET 0.000000 -28.893500 0.000000
        CHANNELS 3 Yrotation Xrotation Zrotation
        JOINT LeftWrist
        {
         OFFSET 0.000000 -23.344000 0.000000
         CHANNELS 3 Yrotation Xrotation Zrotation
         End Site
         {
          OFFSET 0.000000 -17.223000 0.000000
         }
        }
       }
      }
     }
    }
   }
  }
 }
 JOINT RightHip
 {
  OFFSET -7.547200 -0.009500 -0.001000
  CHANNELS 3 Yrotation Xrotation Zrotation
  JOINT RightKnee
  {
   OFFSET 0.000000 -39.762800 0.000900
   CHANNELS 3 Yrotation Xrotation Zrotation
   JOINT RightAnkle
   {
    OFFSET 0.000000 -38.588200 0.001600
    CHANNELS 3 Yrotation Xrotation Zrotation
    JOINT RightToe
    {
     OFFSET 0.000000 -4.693300 10.419700
     CHANNELS 3 Yrotation Xrotation Zrotation
     End Site
     {
      OFFSET 0.000000 -1.379900 5.669300
     }
    }
   }
  }
 }
 JOINT LeftHip
 {
  OFFSET 7.547200 -0.009500 -0.001000
  CHANNELS 3 Yrotation Xrotation Zrotation
  JOINT LeftKnee
  {
   OFFSET 0.000000 -39.762800 0.000900
   CHANNELS 3 Yrotation Xrotation Zrotation
   JOINT LeftAnkle
   {
    OFFSET 0.000000 -38.588200 0.001600
    CHANNELS 3 Yrotation Xrotation Zrotation
    JOINT LeftToe
    {
     OFFSET 0.000000 -4.693300 10.419700
     CHANNELS 3 Yrotation Xrotation Zrotation
     End Site
     {
      OFFSET 0.000000 -1.379900 5.669300
     }
    }
   }
  }
 }
}
MOTION
Frames: 15
Frame Time: 0.008333
3.139545 45.742941 8.905876 168.409445 -16.040431 2.585922 0.620683 10.011398 4.528274 -0.000816 0.666515 0.334443 0.028178 1.176236 0.512631 0.407060 9.240419 4.442599 -0.948249 24.605518 -3.163188 -0.307611 0.947022 -3.219834 11.589194 0.512146 -9.459439 14.767562 -28.226040 -18.421223 78.582585 -68.527937 -67.242232 -6.458751 -2.038744 -24.249488 -12.138988 -3.318673 -2.914675 0.341911 -21.739271 13.530727 -52.498472 -78.224963 39.902869 -2.408295 1.810992 12.709659 0.364769 -73.415054 -2.172693 -159.839410 81.282641 -161.759690 -10.839786 -28.095563 10.059046 0.057977 -0.333881 -0.036765 3.329570 -70.311196 16.061693 86.836036 79.609273 83.563060 -13.034581 -7.215922 1.124116 0.319870 0.475025 0.048108
3.161532 45.737096 8.910396 168.378848 -16.076997 2.618890 0.602427 10.009542 4.574724 0.020747 0.692417 0.288666 0.028056 1.178487 0.515069 0.401085 9.240567 4.447464 -0.859803 24.514623 -3.147973 -0.212279 0.858868 -3.269541 11.797355 0.416795 -9.403275 15.102140 -28.314847 -18.748276 74.766672 -68.224513 -63.518596 -6.450981 -1.717640 -23.886491 -12.287570 -3.420037 -2.903544 0.031401 -21.826217 13.731547 -50.027779 -77.245000 37.698762 -2.597920 2.238542 12.469200 0.460524 -73.391001 -2.218079 -159.815775 81.270723 -161.737710 -10.843511 -28.090490 10.056021 0.048435 -0.331709 -0.026742 3.090750 -70.248164 16.200796 86.732574 79.580435 83.512456 -13.016330 -7.210981 0.972469 0.379841 0.476544 0.058922
3.183961 45.731353 8.913707 168.348798 -16.117906 2.647340 0.609017 10.035985 4.581616 0.019587 0.691025 0.289822 0.011811 1.160943 0.548457 0.391122 9.236665 4.476200 -0.780317 24.430398 -3.203534 -0.114527 0.746465 -3.322468 12.016452 0.357587 -9.404516 15.388625 -28.404207 -19.057409 71.321492 -67.793155 -60.140597 -6.432887 -1.418851 -23.558419 -12.421956 -3.502004 -2.963850 -0.245565 -21.901763 13.926465 -48.053657 -76.310297 35.959008 -2.797977 2.690521 12.228564 0.550681 -73.358076 -2.266359 -159.805756 81.260029 -161.723966 -10.822923 -28.100297 10.048925 0.026421 -0.323977 -0.028370 2.833145 -70.180889 16.351949 86.637831 79.547677 83.476629 -12.991949 -7.208214 0.804141 0.426423 0.478021 0.080374
3.203077 45.725067 8.917955 168.325426 -16.145674 2.688926 0.608131 10.050793 4.572856 0.004909 0.675513 0.320017 0.010867 1.160894 0.550014 0.381269 9.234285 4.503223 -0.698943 24.325701 -3.261562 -0.013525 0.609883 -3.380274 12.223760 0.290713 -9.409933 15.643376 -28.494391 -19.357588 68.285207 -67.252051 -57.151388 -6.391844 -1.143996 -23.294243 -12.558033 -3.581227 -3.024078 -0.470655 -21.981509 14.106022 -46.493371 -75.427818 34.588745 -3.012710 3.160627 11.982259 0.688744 -73.345007 -2.355882 -159.731458 81.241275 -161.652978 -10.837550 -28.097644 10.049930 0.041788 -0.320716 -0.015121 2.607968 -70.126621 16.461389 86.597335 79.497536 83.470226 -12.955788 -7.204585 0.683281 0.446656 0.477425 0.076360
3.224020 45.718001 8.924263 168.304171 -16.159674 2.711949 0.562234 10.019868 4.654597 0.036641 0.700043 0.267220 -0.014081 1.144925 0.593997 0.386771 9.255949 4.466590 -0.611375 24.195086 -3.302650 0.091335 0.452976 -3.443313 12.414456 0.209375 -9.402874 15.881971 -28.586948 -19.660361 65.659146 -66.633776 -54.555727 -6.313401 -0.878215 -23.108285 -12.689754 -3.660418 -3.059850 -0.645305 -22.068186 14.269119 -45.235916 -74.604897 33.482644 -3.237627 3.646467 11.732809 0.776625 -73.348600 -2.389660 -159.638440 81.220470 -161.566996 -10.829341 -28.078926 10.054214 0.033436 -0.334095 -0.013455 2.334854 -70.090034 16.616426 86.567819 79.442764 83.481568 -12.922930 -7.206656 0.568244 0.434205 0.481681 0.088887
3.244198 45.710989 8.929859 168.283720 -16.174612 2.735394 0.559806 10.025202 4.659886 0.022252 0.689286 0.296874 -0.027613 1.139477 0.604449 0.387282 9.263212 4.459132 -0.523757 24.050171 -3.348095 0.197187 0.279431 -3.510952 12.591926 0.130444 -9.398654 16.118141 -28.682000 -19.970195 63.408282 -65.967246 -52.324481 -6.189666 -0.591122 -22.983558 -12.807728 -3.734641 -3.089155 -0.780640 -22.161164 14.417406 -44.229833 -73.830260 32.604978 -3.459893 4.128087 11.499507 0.862938 -73.342971 -2.435767 -159.586573 81.210081 -161.518084 -10.804125 -28.087472 10.048128 -0.000341 -0.326331 -0.017284 2.068649 -70.054721 16.759481 86.544146 79.383872 83.505460 -12.883925 -7.203940 0.438279 0.464946 0.482905 0.076145
3.258709 45.703682 8.936164 168.222237 -16.173967 2.798261 0.591108 10.016943 4.635180 -0.038435 0.655616 0.367384 0.008477 1.164206 0.555697 0.384752 9.263570 4.466393 -0.440835 23.890807 -3.398742 0.299043 0.089094 -3.583014 12.751430 0.051209 -9.397548 16.356767 -28.776911 -20.285039 61.474813 -65.272938 -50.403689 -6.025345 -0.264951 -22.883695 -12.916420 -3.807341 -3.113566 -0.885652 -22.260157 14.555392 -43.470159 -73.094362 31.964655 -3.669752 4.573881 11.290623 1.096743 -73.361558 -2.567434 -159.472042 81.192298 -161.418708 -10.852665 -28.052187 10.069298 0.027469 -0.341375 -0.001272 1.926898 -70.031649 16.807899 86.527602 79.322550 83.543892 -12.891205 -7.217327 0.287738 0.548016 0.497205 0.085720
3.278069 45.696597 8.942119 168.198057 -16.181105 2.816042 0.519041 9.990516 4.695275 0.003523 0.677651 0.323902 0.008410 1.164326 0.556688 0.384557 9.262578 4.472994 -0.366658 23.716612 -3.456006 0.392864 -0.118375 -3.660018 12.894080 -0.029332 -9.398010 16.593870 -28.872930 -20.602320 59.784863 -64.564484 -48.719598 -5.837376 0.082915 -22.785523 -13.015575 -3.876606 -3.134231 -0.963899 -22.368563 14.686112 -42.933244 -72.402996 31.538173 -3.871448 4.987492 11.102980 1.154055 -73.363744 -2.580401 -159.403867 81.184011 -161.346555 -10.865356 -28.056114 10.063764 -0.008191 -0.338115 -0.003327 1.659791 -70.008055 16.946753 86.507207 79.260420 83.585306 -12.842783 -7.211505 0.152875 0.562566 0.495216 0.084267
3.294361 45.689725 8.948008 168.149685 -16.181575 2.852783 0.536349 9.985829 4.688871 -0.020862 0.668931 0.344955 0.032367 1.173123 0.535973 0.384860 9.261736 4.475887 -0.310190 23.516717 -3.490496 0.477505 -0.340178 -3.743217 13.005675 -0.129556 -9.374569 16.825867 -28.971454 -20.916976 58.275389 -63.858650 -47.213430 -5.647352 0.423549 -22.686860 -13.123465 -3.944296 -3.119422 -1.023479 -22.488982 14.806094 -42.588320 -71.760500 31.298043 -4.077517 5.397057 10.934335 1.277004 -73.371733 -2.647769 -159.382240 81.181007 -161.320034 -10.861495 -28.065973 10.056643 -0.025263 -0.322418 -0.008817 1.465078 -69.990039 17.030730 86.480395 79.196416 83.626383 -12.792337 -7.195476 0.019141 0.545029 0.481829 0.113732
3.310255 45.683000 8.954614 168.095696 -16.174138 2.885818 0.560187 9.973635 4.687776 -0.048260 0.662417 0.363190 0.059374 1.179404 0.517755 0.384996 9.260272 4.478005 -0.268710 23.308601 -3.534294 0.555399 -0.572374 -3.833930 13.106381 -0.231303 -9.353152 17.055611 -29.067958 -21.224043 56.894525 -63.177311 -45.846232 -5.462762 0.755692 -22.589899 -13.220177 -4.005658 -3.101163 -1.078142 -22.610673 14.909150 -42.453642 -71.162009 31.278930 -4.286525 5.805328 10.774087 1.353293 -73.390897 -2.664162 -159.345505 81.176376 -161.298089 -10.819916 -28.066114 10.046917 -0.026128 -0.319568 -0.011823 1.278227 -69.979824 17.111958 86.443432 79.132131 83.663883 -12.732417 -7.185802 -0.125975 0.557913 0.474206 0.115032
3.326483 45.676943 8.960567 168.063485 -16.168866 2.904709 0.491443 9.953119 4.726815 -0.011455 0.673249 0.334077 0.066277 1.177149 0.521167 0.335408 9.241753 4.518210 -0.203521 23.125470 -3.662914 0.629742 -0.810227 -3.932687 13.266197 -0.291393 -9.394552 17.292442 -29.157704 -21.523523 55.589625 -62.532814 -44.579141 -5.276834 1.098171 -22.494352 -13.232529 -4.051801 -3.156835 -1.133830 -22.720392 14.991208 -42.534687 -70.606684 31.494871 -4.485280 6.193445 10.609720 1.262295 -73.406021 -2.530145 -159.190512 81.168593 -161.190827 -10.806498 -28.068761 10.040547 -0.030483 -0.314746 -0.009234 1.069653 -69.969611 17.195132 86.399982 79.070687 83.702598 -12.675577 -7.191074 -0.256017 0.595527 0.480681 0.086265
3.340130 45.671650 8.965685 168.004921 -16.159918 2.940896 0.463598 9.938742 4.736629 0.001893 0.676188 0.325637 0.005592 1.162039 0.559570 0.383304 9.252938 4.485018 -0.160850 22.920867 -3.752099 0.702639 -1.048443 -4.039203 13.387528 -0.382684 -9.400429 17.538880 -29.239314 -21.811430 54.342017 -61.925791 -43.395785 -5.090441 1.463571 -22.395621 -13.268844 -4.107700 -3.166061 -1.182291 -22.811323 15.049273 -42.762934 -70.102592 31.874971 -4.665576 6.545446 10.437748 1.343885 -73.420539 -2.552029 -159.093822 81.167406 -161.103514 -10.789631 -28.077507 10.036131 -0.037318 -0.307847 -0.014590 0.940088 -69.962714 17.222483 86.358598 79.010138 83.751479 -12.622356 -7.190384 -0.369369 0.608897 0.476287 0.068431
3.353328 45.666997 8.970488 167.944361 -16.146671 2.974698 0.446765 9.925634 4.740821 0.000780 0.675346 0.326038 0.003619 1.160587 0.560326 0.368221 9.245695 4.491679 -0.113886 22.718940 -3.848473 0.775664 -1.283516 -4.152145 13.515565 -0.470808 -9.408925 17.787004 -29.315532 -22.082214 53.157703 -61.354388 -42.295482 -4.907696 1.854561 -22.291701 -13.287924 -4.164011 -3.176766 -1.212087 -22.880070 15.083505 -43.037156 -69.657122 32.314315 -4.819932 6.858573 10.261706 1.417608 -73.438329 -2.566287 -158.977840 81.166507 -160.995448 -10.771335 -28.084450 10.030750 -0.045226 -0.293041 -0.019883 0.830155 -69.962569 17.233576 86.319019 78.945618 83.808664 -12.558414 -7.189417 -0.488301 0.596926 0.470300 0.057596
3.366971 45.663239 8.974003 167.902498 -16.136361 2.997213 0.408504 9.917567 4.749145 0.038603 0.677328 0.310178 -0.037662 1.155089 0.577525 0.328949 9.231031 4.509152 -0.052510 22.526827 -3.964347 0.850472 -1.513643 -4.269325 13.664015 -0.546220 -9.430158 18.026565 -29.392626 -22.333591 52.050849 -60.814378 -41.285327 -4.723205 2.266997 -22.192693 -13.279121 -4.218071 -3.201979 -1.224816 -22.924924 15.101948 -43.274528 -69.279226 32.727647 -4.941037 7.144090 10.084887 1.409685 -73.452968 -2.519546 -158.839938 81.162532 -160.876350 -10.752566 -28.088351 10.025853 -0.036951 -0.289716 -0.021988 0.709154 -69.962208 17.242012 86.276889 78.877834 83.867647 -12.488318 -7.193653 -0.614368 0.588777 0.468615 0.059438
3.380001 45.660141 8.976744 167.853860 -16.122272 3.022400 0.374802 9.908770 4.755539 0.077223 0.677346 0.294830 -0.039353 1.154425 0.577291 0.268767 9.215831 4.530553 -0.001911 22.331339 -4.066102 0.928629 -1.738915 -4.389111 13.792443 -0.629111 -9.437449 18.250043 -29.473345 -22.562297 51.054144 -60.296331 -40.394713 -4.526184 2.691491 -22.118756 -13.284865 -4.274357 -3.209595 -1.228351 -22.945009 15.114126 -43.458322 -68.978884 33.097743 -5.031137 7.413444 9.914556 1.361482 -73.470036 -2.430335 -158.719377 81.160120 -160.789740 -10.732468 -28.093134 10.020441 -0.064812 -0.294684 -0.028626 0.614822 -69.965956 17.235661 86.235390 78.811517 83.928088 -12.407454 -7.194321 -0.761844 0.566742 0.461999 0.088233
